<?xml version="1.0" encoding="utf-8"?>
<!-- Generator: Adobe Illustrator 23.0.1, SVG Export Plug-In . SVG Version: 6.00 Build 0)  -->
<svg version="1.1" id="Layer_1" xmlns="http://www.w3.org/2000/svg" xmlns:xlink="http://www.w3.org/1999/xlink" x="0px" y="0px"
	 viewBox="0 0 850.4 850.4" style="enable-background:new 0 0 850.4 850.4;" xml:space="preserve">
<style type="text/css">
	.st0{fill:#FFFFFF;}
	.st1{fill:#FFF200;}
	.st2{fill:#C1272D;}
	.st3{fill:#C4E7E4;}
	.st4{fill:#28903B;}
	.st5{fill:none;stroke:#000000;stroke-width:0.2835;}
	.st6{fill:#ED1C24;}
</style>
<g>
	
		<ellipse transform="matrix(0.7071 -0.7071 0.7071 0.7071 -167.146 436.171)" class="st0" cx="442.9" cy="419.8" rx="317.1" ry="317.1"/>
	<path d="M442.9,737.5c-84.9,0-164.6-33-224.6-93c-60-60-93.1-139.8-93.1-224.6c0-84.9,33-164.6,93.1-224.6
		c60-60,139.8-93.1,224.6-93.1c84.9,0,164.6,33,224.6,93.1c60,60,93.1,139.8,93.1,224.6c0,84.9-33,164.6-93.1,224.6
		C607.6,704.5,527.8,737.5,442.9,737.5z M442.9,103.3c-84.5,0-164,32.9-223.8,92.7s-92.7,139.3-92.7,223.8
		c0,84.5,32.9,164,92.7,223.8c59.8,59.8,139.3,92.7,223.8,92.7c84.5,0,164-32.9,223.8-92.7c59.8-59.8,92.7-139.3,92.7-223.8
		c0-84.5-32.9-164-92.7-223.8C607,136.3,527.5,103.3,442.9,103.3z"/>
</g>
<g>
	<path class="st1" d="M660.5,452.8v-54h-11.4v-7.9H687v7.9h-11.3v54H660.5z"/>
	<path d="M676.3,453.4h-16.4v-54h-11.4v-9.1h39.1v9.1h-11.3V453.4z M661.1,452.2h14v-54h11.3v-6.7h-36.8v6.7h11.4V452.2z"/>
</g>
<path class="st2" d="M492.4,577.5c-7.4,4.6-13.8,15.8-10.7,25.9c-8.1-8.1-16.9-15.7-25.4-12l-3.8-10c6.7-2,14.5-2,21.5,2.5
	c-0.6-8.1,5.2-13.6,9.4-16.2L492.4,577.5z"/>
<path class="st2" d="M532.2,521.3c-3.8,5.3-3,14.4,0.9,21.2c-7.9-2.9-16.9-2.6-22.1,2.6l-11.4-11.1c5.2-5.2,11.2-8,18.4-5.2
	c-2.8-4.6-2.4-10.9,2-15.2L532.2,521.3z"/>
<path class="st2" d="M482.8,295.3c28.5-36.7,60.8-46.6,77-27.9c15.4,17.8-12,50.8-23.2,50.8c3.5-25.5-15.5-12.5-32,4.1"/>
<path class="st0" d="M526.1,328.4c-3.8-5.3-4-11.8,0-18.6c-7.9,2.9-14.9,1.2-20-4l-11.2,11.4c5.2,5.2,9.8,6.5,17,3.8
	c-2.8,4.6-2.4,10.9,2,15.2L526.1,328.4z"/>
<path class="st2" d="M484.7,282c-3.8-5.3-4-11.8,0-18.6c-7.9,2.9-14.9,1.2-20-4l-11.2,11.4c5.2,5.2,9.8,6.5,17,3.8
	c-2.8,4.6-2.4,10.9,2,15.2L484.7,282z"/>
<path class="st2" d="M446.4,342.2c0,0-1.4-46.7,20.9-95.5c-10.5,4.3-20.9,6.5-20.9-17"/>
<path class="st0" d="M479.4,283.6l8-9.5c-7.4-4.6-12.6-14.6-9.4-24.7c-8.1,8.1-13.8,10.2-22.2,8.1l-4.1,13.2c6.7,2,10.9,2,17.9-2.5
	c-0.6,8.1,1.9,11.6,6.1,14.2L479.4,283.6z"/>
<path class="st3" d="M451.6,270.8c6.7,2,10.9,2,17.9-2.5c-0.6,8.1,1.9,11.6,6.1,14.2l19.4,34.7c5.2,5.2,9.8,6.5,17,3.8
	c-2.8,4.6-2.4,10.9,2,15.2l-19.4,15.1H474l-30.7-15.1v-65.4H451.6z"/>
<path class="st2" d="M397.6,503.4c-54.3,47.2-106,50-112,22"/>
<path class="st2" d="M448.8,520.7c0,0,1.4,46.7-20.9,95.5c10.5-4.3,20.9-6.5,20.9,17"/>
<path class="st2" d="M448.8,520.7c0,0-1.4,46.7,20.9,95.5c-10.5-4.3-20.9-6.5-20.9,17"/>
<path class="st2" d="M458.6,520.3c-7.1,42.1-25.3,54.8-37.5,49c-29.6,38.2-63.2,48.5-80.1,29"/>
<path class="st2" d="M407.3,577.5c7.4,4.6,12.6,14.6,9.4,24.7c8.1-8.1,13.8-10.2,22.2-8.1"/>
<path class="st2" d="M370.4,525.2c3.8,5.3,4,11.8,0,18.6c7.9-2.9,14.9-1.2,20,4"/>
<path class="st2" d="M501.1,502c54.3,47.2,106,50,112,22c2-18.2-16.9-30.1-41.4-24.4c7.1,26.4-34.9,7.6-40,2.5"/>
<path class="st2" d="M484.9,567.8c28.5,36.7,60.8,46.6,77,27.9c15.4-17.8-12-50.8-23.2-50.8c5.3,38.8-41.4-11.5-52.3-28.2
	c0,4.7-7.8,6.6-16.1-3.8"/>
<path class="st2" d="M510.6,351.3c48.8-36,92.2-36.1,97.7-10.5c2,18.2-16.9,30.1-41.4,24.4c6.2-23.1-25.2-11.6-36.5-4.9"/>
<path class="st3" d="M435.1,270.8c-6.7,2-10.9,2-17.9-2.5c0.6,8.1-1.9,11.6-6.1,14.2l-19.4,34.7c-5.2,5.2-9.8,6.5-17,3.8
	c2.8,4.6,2.4,10.9-2,15.2l19.4,15.1h20.5l30.7-15.1v-65.4H435.1z"/>
<path class="st3" d="M435.1,575.7c-6.7-2-10.9-2-17.9,2.5c0.6-8.1-1.9-11.6-6.1-14.2l-19.4-34.7c-5.2-5.2-9.8-6.6-17-3.8
	c2.8-4.6,2.4-10.9-2-15.2l19.4-15.1h20.5l30.7,15.1v65.5H435.1z"/>
<path class="st3" d="M451.6,575.7c6.7-2,10.9-2,17.9,2.5c-0.6-8.1,1.9-11.6,6.1-14.2l19.4-34.7c5.2-5.2,9.8-6.6,17-3.8
	c-2.8-4.6-2.4-10.9,2-15.2l-19.4-15.1H474l-30.7,15.1v65.5H451.6z"/>
<g>
	<path class="st1" d="M392.1,351.3c-54.3-47.2-106-50-112-22c-2,18.2,16.9,30.1,41.4,24.4c-7.1-26.4,34.9-7.6,40-2.5"/>
	<path d="M309.6,356.3c-9.3,0-17.5-2.7-23.2-7.7c-5.6-4.9-8.2-11.8-7.3-19.3c1.7-8.3,7.2-14.1,15.8-17c26.9-9,68.5,12.7,97.9,38.3
		l-1.4,1.6c-40.1-34.9-77.1-44.2-95.9-37.9c-7.8,2.6-12.8,7.9-14.4,15.3c-0.7,6.7,1.6,12.9,6.7,17.4c7.4,6.6,19.4,8.8,32.4,6
		c-1.4-6.1-0.3-10.3,3.5-12.5c9.7-5.6,34.7,6.1,38.6,10l-1.5,1.5c-3.5-3.5-27.5-14.6-36.1-9.7c-3,1.7-3.8,5.5-2.2,11.2l0.3,1
		l-1.1,0.2C317.6,355.8,313.5,356.3,309.6,356.3z"/>
</g>
<path class="st2" d="M443.3,371.2H256.2c0,0,1.1-6.1,4.7-5.9h182.4"/>
<path class="st2" d="M443.3,371.2h187.2c0,0-1-6.1-4.7-5.9H443.3"/>
<g>
	<path class="st1" d="M443.3,330.7c-6.8-40.5-24.3-52.7-36.1-47.1c-28.5-36.7-60.8-46.6-77-27.9c-15.4,17.8,12,50.8,23.2,50.8
		c-5.3-38.8,41.4,11.5,52.3,28.2c0-4.7,7.8-6.6,16.1,3.8"/>
	<path d="M421.1,339.2c-5.3-6.5-10-7.8-12.5-7c-1.2,0.4-1.8,1.3-1.8,2.5v3.5l-1.9-2.9c-9-13.9-38.3-45.3-47.8-41.8
		c-3.4,1.3-3.3,7.7-2.6,12.9l0.2,1.2h-1.2c-7.2,0-19.6-12-25.3-24.7c-5.1-11.1-4.6-21,1.3-27.9c5.6-6.5,13.4-9.8,22.3-9.6
		c17.5,0.5,37.7,13.9,55.7,36.9c4.1-1.7,8.5-1.3,12.9,0.9c11,5.8,19.7,23,23.8,47.3l-2.1,0.3c-4-23.6-12.3-40.3-22.7-45.8
		c-4.1-2.1-8.2-2.3-11.9-0.6l-0.8,0.4l-0.5-0.7c-17.7-22.9-37.7-36.3-54.7-36.7c-8.3-0.2-15.5,2.8-20.7,8.9
		c-7.3,8.4-3.8,19.7-1,25.6c5.5,12.2,16.2,22.1,22.3,23.3c-0.9-7.9,0.5-12.5,4.1-13.8c11.2-4.2,39.4,27.2,49,40.8
		c0.5-0.9,1.4-1.6,2.6-2c3.2-1.1,8.8,0.2,14.8,7.6L421.1,339.2z"/>
</g>
<path class="st2" d="M443.3,348.5c-7.4,0-13.5,5.2-15.1,12.1h30.1C456.8,353.7,450.7,348.5,443.3,348.5"/>
<path d="M399.8,274.9l-0.9-1.5c6.8-4.3,12.2-13.8,9-23.7l1.5-0.9c7.9,7.9,13.3,9.9,21.4,7.8l0.4,1.7c-8,2-13.6,0.5-20.9-6.2
	C411.9,261.8,406.5,270.7,399.8,274.9z"/>
<path d="M411.6,283.2l-0.9-1.5c3.8-2.3,6.2-5.5,5.6-13.4l-0.1-1.8l1.5,1c6.8,4.4,10.8,4.3,17.2,2.4l0.5,1.7
	c-6.3,1.9-10.7,2.1-17.2-1.7C418.3,276.4,416.3,280.3,411.6,283.2z"/>
<path d="M361.2,328.9l-1.4-1c3.7-5.2,3.7-11.3-0.1-17.6l-1.2-2.1l2.3,0.8c7.4,2.7,14,1.4,19.1-3.8l1.3,1.3
	c-5.1,5.1-11.7,6.8-18.9,4.9C365.3,317.6,364.9,323.8,361.2,328.9z"/>
<path d="M373.4,336.8l-1.3-1.3c3.9-3.9,4.6-9.6,1.9-14.2l-1.3-2.2l2.4,0.9c6.7,2.5,10.9,1.6,16.1-3.6l1.3,1.3
	c-5.1,5.1-9.7,6.5-15.9,4.7C378.4,327.4,377.3,332.9,373.4,336.8z"/>
<path class="st4" d="M397.5,308c-6.8-8.7-46.7-43.7-52.5-27.7c-8.7-14.8,0.7-18.1,6.6-18.1c16.1,0.9,36.4,20.5,49.6,37.1L397.5,308z
	"/>
<path class="st4" d="M363.9,342.8c-2.4-4.9-58.3-33.7-68.7-15.8c-2.7,8.4,2.7,12.7,11.2,15.1C308.3,311.4,360.9,345.8,363.9,342.8z"
	/>
<path class="st4" d="M429.9,330.3c1.1-6-8.2-26.8-15.5-26c-3.6,0.6-5.1,5.7-1.9,11.4C421.3,309.7,425.3,331.2,429.9,330.3z"/>
<g>
	<path class="st1" d="M494.5,351.3c54.3-47.2,106-50,112-22c2,18.2-16.9,30.1-41.4,24.4c7.1-26.4-34.9-7.6-40-2.5"/>
	<path d="M577,356.3c-3.9,0-8-0.5-12.1-1.4l-1.1-0.2l0.3-1c1.5-5.7,0.8-9.4-2.2-11.2c-8.6-5-32.6,6.2-36.1,9.7l-1.5-1.5
		c3.9-3.9,28.8-15.7,38.6-10c3.7,2.2,4.9,6.3,3.5,12.5c13,2.7,25,0.5,32.4-6c5-4.5,7.4-10.7,6.6-17.5c-1.6-7.3-6.5-12.6-14.4-15.2
		c-18.8-6.3-55.7,3-95.9,37.9l-1.4-1.6c29.4-25.5,71-47.3,97.9-38.3c8.6,2.9,14,8.7,15.8,16.9c0.8,7.6-1.8,14.5-7.3,19.4
		C594.5,353.6,586.3,356.3,577,356.3z"/>
</g>
<path d="M525.4,328.9c-3.7-5.2-4.1-11.4-1.1-17.6c-7.2,1.9-13.8,0.2-18.9-4.9l1.3-1.3c5.1,5.1,11.7,6.4,19.1,3.8l2.3-0.8l-1.2,2.1
	c-3.7,6.4-3.8,12.5-0.1,17.6L525.4,328.9z"/>
<path d="M513.3,336.8c-3.9-3.9-5-9.5-3.1-14.3c-6.2,1.8-10.8,0.4-15.9-4.7l1.3-1.3c5.2,5.2,9.4,6.1,16.1,3.6l2.4-0.9l-1.3,2.2
	c-2.8,4.6-2,10.3,1.9,14.2L513.3,336.8z"/>
<path class="st4" d="M522.7,342.8c2.4-4.9,58.3-33.7,68.7-15.8c2.7,8.4-2.7,12.7-11.2,15.1C578.4,311.4,525.8,345.8,522.7,342.8z"/>
<path class="st2" d="M443.3,475.2H256.2c0,0,1.1,6.1,4.7,5.9h182.4"/>
<path class="st2" d="M443.3,475.2h187.2c0,0-1,6.1-4.7,5.9H443.3"/>
<g>
	<path class="st1" d="M443.3,515.7c0,0-1.4,46.7,20.9,95.5c-10.5-4.3-20.9-6.5-20.9,17"/>
	<path d="M444.4,628.2h-2.1c0-10.2,2-16.5,6-19.2c3.8-2.6,8.9-1.5,14,0.3c-21.1-47.7-20-93.2-20-93.7l2.1,0.1
		c0,0.5-1.1,47.1,20.8,95.1l1.1,2.4l-2.4-1c-5.4-2.2-10.8-3.9-14.4-1.5C446.1,613,444.4,618.9,444.4,628.2z"/>
</g>
<path class="st2" d="M443.3,497.9c-7.4,0-13.5-5.2-15.1-12.1h30.1C456.8,492.8,450.7,497.9,443.3,497.9"/>
<path d="M730.1,347c-34.4-129.8-152.3-220.4-286.8-220.4c-134.4,0-252.3,90.6-286.8,220.4l-5.7-1.5
	C186,213.1,306.2,120.7,443.3,120.7c137.1,0,257.4,92.4,292.5,224.8L730.1,347z"/>
<path d="M443.3,725.8c-137.1,0-257.4-92.4-292.5-224.8l5.7-1.5C191,629.2,308.9,719.9,443.3,719.9c134.4,0,252.4-90.6,286.8-220.4
	l5.7,1.5C700.7,633.3,580.4,725.8,443.3,725.8z"/>
<path d="M154.5,364.8c0,2.8-2.2,5-5,5c-2.8,0-5-2.2-5-5c0-2.8,2.2-5,5-5C152.2,359.8,154.5,362.1,154.5,364.8z"/>
<path d="M154.5,481.6c0,2.8-2.2,5-5,5c-2.8,0-5-2.2-5-5c0-2.8,2.2-5,5-5C152.2,476.6,154.5,478.8,154.5,481.6z"/>
<path d="M742.2,481.6c0,2.8-2.2,5-5,5c-2.8,0-5-2.2-5-5c0-2.8,2.2-5,5-5C740,476.6,742.2,478.8,742.2,481.6z"/>
<path d="M742.2,364.8c0,2.8-2.2,5-5,5c-2.8,0-5-2.2-5-5c0-2.8,2.2-5,5-5C740,359.8,742.2,362.1,742.2,364.8z"/>
<g>
	<path class="st0" d="M407.3,562.8l3.9,1.2c4.2,2.6,6.6,6.1,6.1,14.2c7-4.5,11.2-4.5,17.9-2.5l-4.1,13.2c-8.5-2.2-14.1-0.1-22.2,8.1
		c3.2-10.1-2-20.1-9.4-24.7L407.3,562.8z"/>
	<path class="st0" d="M372.7,510.2c4.4,4.4,4.8,10.6,2,15.2c7.2-2.8,11.8-1.4,17,3.8l-11.2,11.4c-5.2-5.2-12.1-6.8-20-4
		c4-6.8,3.8-13.3,0-18.6L372.7,510.2z"/>
</g>
<g>
	<path class="st0" d="M479.4,562.8l-3.9,1.2c-4.2,2.6-6.6,6.1-6.1,14.2c-7-4.5-11.2-4.5-17.9-2.5l4.1,13.2
		c8.5-2.2,14.1-0.1,22.2,8.1c-3.2-10.1,2-20.1,9.4-24.7L479.4,562.8z"/>
	<path class="st0" d="M513.9,510.2c-4.4,4.4-4.8,10.6-2,15.2c-7.2-2.8-11.8-1.4-17,3.8l11.2,11.4c5.2-5.2,12.1-6.8,20-4
		c-4-6.8-3.8-13.3,0-18.6L513.9,510.2z"/>
</g>
<path d="M379.9,541.3c-5.1-5.1-11.7-6.4-19.1-3.8l-2.3,0.8l1.2-2.1c3.8-6.4,3.8-12.5,0.1-17.6l1.4-1c3.7,5.2,4.1,11.4,1.1,17.6
	c7.2-1.9,13.8-0.2,18.9,4.9L379.9,541.3z"/>
<path d="M391.1,529.9c-5.2-5.2-9.4-6.1-16.1-3.6l-2.4,0.9l1.3-2.2c2.8-4.6,2-10.3-1.9-14.2l1.3-1.3c3.9,3.9,5,9.5,3.1,14.3
	c6.2-1.8,10.8-0.4,15.9,4.7L391.1,529.9z"/>
<g>
	<path class="st1" d="M392.1,495.1c-54.3,47.2-106,50-112,22c-2-18.2,16.9-30.1,41.4-24.4c-7.1,26.4,34.9,7.6,40,2.5"/>
	<path d="M308.6,536.2c-4.9,0-9.4-0.7-13.7-2.1c-8.6-2.9-14-8.7-15.7-16.9c-0.9-7.6,1.7-14.5,7.3-19.4c8.1-7.2,21.3-9.5,35.3-6.3
		l1.1,0.2l-0.3,1c-1.5,5.7-0.8,9.4,2.2,11.2c8.6,5,32.6-6.2,36.1-9.7l1.5,1.5c-3.9,3.9-28.8,15.7-38.6,10c-3.7-2.2-4.9-6.3-3.5-12.5
		c-13-2.7-25-0.5-32.4,6c-5,4.5-7.4,10.7-6.6,17.5c1.6,7.3,6.5,12.6,14.4,15.2c18.8,6.3,55.7-3,95.9-37.9l1.4,1.6
		C368.1,517.4,334.6,536.2,308.6,536.2z"/>
</g>
<path class="st4" d="M363.9,503.7c-2.4,4.9-58.3,33.7-68.7,15.8c-2.7-8.4,2.7-12.7,11.2-15.1C308.3,535.1,360.9,500.6,363.9,503.7z"
	/>
<g>
	<path class="st1" d="M443.3,515.7c-6.8,40.5-24.3,52.7-36.1,47.1c-28.5,36.7-60.8,46.6-77,27.9c-15.4-17.8,12-50.8,23.2-50.8
		c-5.3,38.8,41.4-11.5,52.3-28.2c0,4.7,7.8,6.6,16.1-3.8"/>
	<path d="M350.9,601c-8.6,0-16-3.3-21.4-9.6c-5.9-6.8-6.4-16.7-1.3-27.9c5.8-12.7,18.1-24.7,25.3-24.7h1.2l-0.2,1.2
		c-0.7,5.2-0.8,11.6,2.6,12.9c9.4,3.5,38.7-27.9,47.8-41.8l1.9-2.9v3.5c0,1.2,0.7,2.1,1.8,2.5c2.5,0.9,7.2-0.4,12.5-7l1.6,1.3
		c-6,7.4-11.5,8.8-14.8,7.6c-1.1-0.4-2-1.1-2.6-2c-9.5,13.6-37.8,44.9-49,40.8c-3.7-1.4-5-5.9-4.1-13.8
		c-6.1,1.2-16.7,11.2-22.3,23.3c-2.7,6-6.2,17.3,1,25.6c5.2,6,12.4,9.1,20.7,8.9c17-0.5,36.9-13.8,54.7-36.7l0.5-0.7l0.8,0.4
		c3.7,1.7,7.8,1.6,11.9-0.6c10.5-5.4,18.7-22.1,22.7-45.8l2.1,0.3c-4.1,24.3-12.8,41.5-23.8,47.3c-4.4,2.3-8.9,2.6-12.9,0.9
		c-18,23-38.3,36.4-55.7,36.9C351.5,601,351.2,601,350.9,601z"/>
</g>
<path class="st4" d="M397.5,538.4c-6.8,8.7-46.7,43.7-52.5,27.7c-8.7,14.8,0.7,18.1,6.6,18.1c16.1-0.9,36.4-20.5,49.6-37.1
	L397.5,538.4z"/>
<path class="st4" d="M429.9,516.2c1.1,6-8.2,26.8-15.5,26c-3.6-0.6-5.1-5.7-1.9-11.4C421.3,536.8,425.3,515.3,429.9,516.2z"/>
<path d="M409.4,597.6l-1.5-0.9c3.1-9.9-2.2-19.4-9-23.7l0.9-1.5c6.7,4.2,12.1,13.1,10.5,22.7c7.3-6.7,12.9-8.3,20.9-6.2l-0.4,1.7
	C422.7,587.7,417.3,589.7,409.4,597.6z"/>
<path d="M416.2,579.9l0.1-1.8c0.6-7.9-1.9-11.1-5.6-13.4l0.9-1.5c4.7,2.9,6.7,6.8,6.6,13.3c6.5-3.8,10.9-3.6,17.2-1.7l-0.5,1.7
	c-6.4-1.9-10.3-2-17.2,2.4L416.2,579.9z"/>
<g>
	<path class="st1" d="M443.3,515.7c0,0,1.4,46.7-20.9,95.5c10.5-4.3,20.9-6.5,20.9,17"/>
	<path d="M444.4,628.2h-2.1c0-9.3-1.7-15.2-5.1-17.5c-3.6-2.4-9.1-0.7-14.4,1.5l-2.4,1l1.1-2.4c22-48,20.9-94.6,20.8-95.1l2.1-0.1
		c0,0.5,1.1,46-20,93.7c5.1-1.9,10.2-2.9,14-0.3C442.4,611.7,444.4,618,444.4,628.2z"/>
</g>
<path class="st4" d="M443.3,600c-2.5-3.5-4.3-4.2-8.5-2.6c3.7-7,6.9-21.1,8.5-33.3 M443.3,600c2.5-3.5,4.3-4.2,8.5-2.6
	c-3.7-7-6.9-21.1-8.5-33.3"/>
<path d="M470.5,579.9l-1.5-1c-6.8-4.4-10.8-4.3-17.2-2.4l-0.5-1.7c6.3-1.9,10.7-2.1,17.2,1.7c-0.1-6.5,1.8-10.4,6.6-13.3l0.9,1.5
	c-3.8,2.3-6.2,5.5-5.6,13.4L470.5,579.9z"/>
<path d="M506.7,541.3l-1.3-1.3c5.1-5.1,11.7-6.8,18.9-4.9c-3-6.3-2.6-12.5,1.1-17.6l1.4,1c-3.7,5.2-3.7,11.3,0.1,17.6l1.2,2.1
	l-2.3-0.8C518.5,534.8,511.9,536.1,506.7,541.3z"/>
<path d="M495.6,529.9l-1.3-1.3c5.1-5.1,9.7-6.5,15.9-4.7c-1.9-4.9-0.8-10.4,3.1-14.3l1.3,1.3c-3.9,3.9-4.6,9.6-1.9,14.2l1.3,2.2
	l-2.4-0.9C505,523.8,500.8,524.7,495.6,529.9z"/>
<g>
	<path class="st1" d="M494.5,495.1c54.3,47.2,106,50,112,22c2-18.2-16.9-30.1-41.4-24.4c7.1,26.4-34.9,7.6-40,2.5"/>
	<path d="M578.1,536.2c-26,0-59.5-18.8-84.2-40.3l1.4-1.6c40.1,34.9,77.1,44.2,95.9,37.9c7.8-2.6,12.8-7.9,14.4-15.3
		c0.7-6.7-1.6-12.9-6.7-17.4c-7.4-6.6-19.4-8.8-32.4-6c1.4,6.1,0.3,10.3-3.5,12.5c-9.7,5.6-34.7-6.1-38.6-10l1.5-1.5
		c3.5,3.5,27.5,14.6,36.1,9.7c3-1.7,3.8-5.5,2.2-11.2l-0.3-1l1.1-0.2c14-3.2,27.2-0.9,35.3,6.3c5.6,4.9,8.2,11.8,7.3,19.3
		c-1.7,8.3-7.2,14.1-15.8,17C587.5,535.6,582.9,536.2,578.1,536.2z"/>
</g>
<g>
	<path class="st1" d="M443.3,515.7c6.8,40.5,24.3,52.7,36.1,47.1c28.5,36.7,60.8,46.6,77,27.9c15.4-17.8-12-50.8-23.2-50.8
		c5.3,38.8-41.4-11.5-52.3-28.2c0,4.7-7.8,6.6-16.1-3.8"/>
	<path d="M535.7,601c-0.3,0-0.6,0-0.9,0c-17.5-0.5-37.7-13.9-55.7-36.9c-4.1,1.7-8.5,1.3-12.9-0.9c-11-5.7-19.7-23-23.8-47.3
		l2.1-0.3c4,23.6,12.3,40.3,22.7,45.8c4.1,2.1,8.2,2.3,11.9,0.6l0.8-0.4l0.5,0.7c17.7,22.9,37.7,36.3,54.7,36.7
		c8.3,0.2,15.5-2.8,20.7-8.9c7.3-8.4,3.8-19.6,1-25.6c-5.5-12.2-16.2-22.1-22.3-23.3c0.9,7.9-0.5,12.5-4.1,13.8
		c-11.2,4.2-39.4-27.2-49-40.8c-0.5,0.9-1.4,1.6-2.6,2c-3.2,1.2-8.8-0.2-14.8-7.6l1.6-1.3c5.3,6.5,10,7.8,12.5,7
		c1.2-0.4,1.8-1.3,1.8-2.5v-3.5l1.9,2.9c9,13.9,38.4,45.3,47.8,41.8c3.4-1.3,3.3-7.7,2.6-12.9l-0.2-1.2h1.2c7.2,0,19.6,12,25.3,24.7
		c5.1,11.1,4.6,21-1.3,27.9C551.7,597.7,544.3,601,535.7,601z"/>
</g>
<path class="st4" d="M489.2,538.4c6.8,8.7,46.7,43.7,52.5,27.7c8.7,14.8-0.7,18.1-6.6,18.1c-16.1-0.9-36.4-20.5-49.6-37.1
	L489.2,538.4z"/>
<path class="st4" d="M522.7,503.7c2.4,4.9,58.3,33.7,68.7,15.8c2.7-8.4-2.7-12.7-11.2-15.1C578.4,535.1,525.8,500.6,522.7,503.7z"/>
<path class="st4" d="M456.8,516.2c-1.1,6,8.2,26.8,15.5,26c3.6-0.6,5.1-5.7,1.9-11.4C465.3,536.8,461.3,515.3,456.8,516.2z"/>
<path class="st2" d="M421.3,485.9c1.6,10.7,10.9,19,22.1,19l0,10.9c-13.9,0-25.8-8.5-30.7-20.6 M421.3,485.9h-68.4
	c-2.5,0-3.7-2.2-4-4.8h-11.3c0.4,6.7,3.8,14,17.5,14h57.6"/>
<path class="st2" d="M474,495.1c-5,12.1-16.8,20.6-30.7,20.6l0-10.9c11.2,0,20.4-8.2,22.1-19 M474,495.1h57.6c13.7,0,17-7.3,17.5-14
	h-11.3c-0.3,2.6-1.5,4.8-4,4.8h-68.4"/>
<g>
	<path class="st1" d="M158.2,452.8v-61.9h16v53.6h19.1v8.3H158.2z"/>
	<path d="M193.9,453.4h-36.3v-63.1h17.1v53.6h19.1V453.4z M158.8,452.2h33.9v-7.2h-19.1v-53.6h-14.8V452.2z"/>
</g>
<g>
	<path class="st1" d="M194.9,422.2c0-7.1,0.9-13,2.6-17.6c1.8-4.6,4.1-8.1,6.9-10.3c2.8-2.3,6.3-3.4,10.3-3.4c5.8,0,10.6,2.7,14.3,8
		c3.7,5.4,5.5,13,5.5,22.9c0,10-2,17.8-5.8,23.5c-3.4,5-8.1,7.5-13.9,7.5c-5.9,0-10.6-2.5-14-7.4C196.8,439.8,194.9,432,194.9,422.2
		z"/>
	<path d="M214.7,453.4c-6.1,0-11-2.6-14.5-7.6c-4-5.7-6-13.6-6-23.5c0-7.2,0.9-13.2,2.7-17.8c1.8-4.7,4.2-8.2,7.1-10.6
		c2.9-2.3,6.5-3.5,10.7-3.5c6,0,11,2.8,14.8,8.3c3.7,5.4,5.6,13.3,5.6,23.2c0,10.1-2,18.1-6,23.8
		C225.6,450.8,220.8,453.4,214.7,453.4z M214.7,391.5c-3.9,0-7.2,1.1-9.9,3.3c-2.7,2.2-5,5.6-6.7,10.1c-1.7,4.5-2.6,10.4-2.6,17.4
		c0,9.7,1.9,17.3,5.7,22.9c3.3,4.7,7.8,7.1,13.5,7.1c5.6,0,10.2-2.4,13.5-7.2c3.8-5.5,5.7-13.3,5.7-23.1c0-9.7-1.8-17.3-5.4-22.6
		C225,394.1,220.3,391.5,214.7,391.5z"/>
</g>
<g>
	<path class="st1" d="M241.1,452.8v-61.9h9.3l19.4,32.3v-32.3h8.9v61.9H269l-19.1-32.3v32.3H241.1z"/>
	<path d="M279.2,453.4h-10.5l-18.2-30.7v30.7h-10.1v-63.1h10.2l18.5,30.8v-30.8h10.1V453.4z M269.4,452.2h8.7v-60.7h-7.7v33.8
		L250,391.5h-8.4v60.7h7.7v-33.9L269.4,452.2z"/>
</g>
<g>
	<path class="st1" d="M287.5,452.8v-61.9h37v7.9l-21.9,2.6v13.7h20v10.4h-20v16.8l22.8,2.6v7.9H287.5z"/>
	<path d="M326,453.4h-39.1v-63.1h38.2v9l-21.9,2.6v12.5h20v11.6h-20v15.7l22.8,2.6V453.4z M288.1,452.2h36.7v-6.8l-22.8-2.6v-17.9
		h20v-9.2h-20v-14.8l21.9-2.6v-6.8h-35.8V452.2z"/>
</g>
<g>
	<path class="st1" d="M389.6,452.8v-16.4l-23.4-45.5h11.2l15.5,30.2l16.1-30.2l15.7,0l-19.2,35.9v25.9H389.6z"/>
	<path d="M406.1,453.4H389v-16.9l-23.8-46.2h12.5l15.2,29.5l15.8-29.5l17,0L406.1,427V453.4z M390.2,452.2h14.7l0.1-25.6l18.7-35.1
		l-14.3,0l-16.5,30.9L377,391.5h-9.8l23,44.9V452.2z"/>
</g>
<g>
	<path class="st1" d="M460.4,452.8v-61.9l15.7,0v24.3h7.9v-24.3h15.7v61.9H484v-27.1h-7.9v27.1H460.4z"/>
	<path d="M500.3,453.4h-16.9v-27.1h-6.7v27.1h-16.9v-63.1l16.9,0v24.3h6.7v-24.3h16.9V453.4z M484.6,452.2h14.5v-60.7h-14.5v24.3
		h-9.1v-24.3l-14.5,0v60.7h14.5v-27.1h9.1V452.2z"/>
</g>
<g>
	<path class="st1" d="M596.7,452.8h-17l-1.3-4.9h-14.9l-1.2,4.9H553l16.9-61.9h9.4L596.7,452.8z M575.6,437.5l-4.8-17.8l-4.6,17.8
		H575.6z"/>
	<path d="M597.5,453.4h-18.2l-1.3-4.9h-14l-1.2,4.9h-10.6l17.2-63.1h10.3l0.1,0.4L597.5,453.4z M580.2,452.2h15.7l-17.1-60.7h-8.5
		l-16.6,60.7h8.1l1.2-4.9h15.8L580.2,452.2z M576.4,438.1h-10.9l5.3-20.7L576.4,438.1z M567,436.9h7.8l-4-14.9L567,436.9z"/>
</g>
<g>
	<path class="st1" d="M601.5,452.8v-61.9H623c8.8,0,19.9,6.1,19.9,20.4c0,6.6-2.7,12.9-10,15.8c2.5-1,14.1,25.7,14.1,25.7h-12.2
		c0,0-7.3-19-11.7-19.9c0,0-6.1-0.2-5.9,0l0,0v19.9H601.5z"/>
	<path d="M647.9,453.4h-13.5l-0.1-0.4c-2.9-7.5-8.3-18.9-11.2-19.6c-2,0-4.3-0.1-5.2,0v20h-16.8v-63.1H623c8.2,0,20.5,5.6,20.5,21
		c0,7.4-3.3,13-9.3,15.9c3.2,2.9,8.8,14.9,13.3,25.4L647.9,453.4z M635.2,452.2h10.9c-5.2-12-11.4-24.2-13.1-24.5l-0.4-1.1
		c0,0,0,0,0,0c7.9-3.2,9.6-10.1,9.6-15.3c0-14.5-11.5-19.8-19.3-19.8h-20.9v60.7h14.5v-19.1l-0.1-0.1l0.2-0.4
		c0.2-0.5,0.2-0.5,6.5-0.3C627.6,433.2,633.9,449,635.2,452.2z"/>
</g>
<path class="st5" d="M174.2,455.7"/>
<path class="st5" d="M174.2,390.9"/>
<path class="st5" d="M199.8,444.5"/>
<path class="st5" d="M174.2,444.5"/>
<path d="M168.4,444.3c0,1.6-1,2.9-2.2,2.9l0,0c-1.2,0-2.2-1.3-2.2-2.9v-44.5c0-1.6,1-2.9,2.2-2.9l0,0c1.2,0,2.2,1.3,2.2,2.9V444.3z"
	/>
<g>
	<path class="st1" d="M332.9,452.8v-61.9h15.9v53.6H368v8.3H332.9z"/>
	<path d="M368.5,453.4h-36.3v-63.1h17.1v53.6h19.2V453.4z M333.4,452.2h33.9v-7.2h-19.2v-53.6h-14.8V452.2z"/>
</g>
<path d="M343,444.3c0,1.6-1,2.9-2.2,2.9l0,0c-1.2,0-2.2-1.3-2.2-2.9v-44.5c0-1.6,1-2.9,2.2-2.9l0,0c1.2,0,2.2,1.3,2.2,2.9V444.3z"/>
<path d="M470.5,444.3c0,1.6-1,2.9-2.2,2.9l0,0c-1.2,0-2.2-1.3-2.2-2.9v-44.5c0-1.6,1-2.9,2.2-2.9l0,0c1.2,0,2.2,1.3,2.2,2.9V444.3z"
	/>
<path d="M670.3,444.3c0,1.6-1,2.9-2.2,2.9l0,0c-1.2,0-2.2-1.3-2.2-2.9v-44.5c0-1.6,1-2.9,2.2-2.9l0,0c1.2,0,2.2,1.3,2.2,2.9V444.3z"
	/>
<path d="M494.1,444.3c0,1.6-1,2.9-2.2,2.9l0,0c-1.2,0-2.2-1.3-2.2-2.9v-44.5c0-1.6,1-2.9,2.2-2.9l0,0c1.2,0,2.2,1.3,2.2,2.9V444.3z"
	/>
<path d="M399.1,425.4v19c0,1.6-1,2.9-2.2,2.9l0,0c-1.2,0-2.2-1.3-2.2-2.9v-17.1l1-1.8"/>
<path d="M394.8,426.9l13.6-25.5c0.5-0.9,1.8-1.2,2.9-0.7l0,0c1.1,0.6,1.5,1.8,1.1,2.7L398.7,429"/>
<path d="M297.5,444.3c0,1.6-1,2.9-2.2,2.9l0,0c-1.2,0-2.2-1.3-2.2-2.9v-44.5c0-1.6,1-2.9,2.2-2.9l0,0c1.2,0,2.2,1.3,2.2,2.9V444.3z"
	/>
<g>
	<path class="st1" d="M510.1,452.8v-61.9h37v7.9l-21.9,2.6v13.7h20v10.4h-20v16.8l22.8,2.6v7.9H510.1z"/>
	<path d="M548.6,453.4h-39.1v-63.1h38.2v9l-21.9,2.6v12.5h20v11.6h-20v15.7l22.8,2.6V453.4z M510.7,452.2h36.7v-6.8l-22.8-2.6v-17.9
		h20v-9.2h-20v-14.8l21.9-2.6v-6.8h-35.8V452.2z"/>
</g>
<path d="M520.1,444.3c0,1.6-1,2.9-2.2,2.9l0,0c-1.2,0-2.2-1.3-2.2-2.9v-44.5c0-1.6,1-2.9,2.2-2.9l0,0c1.2,0,2.2,1.3,2.2,2.9V444.3z"
	/>
<path d="M611.6,420.1v24.2c0,1.6-1,2.9-2.2,2.9l0,0c-1.2,0-2.2-1.3-2.2-2.9v-44.5c0-1.6,1-2.9,2.2-2.9l0,0c1.2,0,2.2,1.3,2.2,2.9
	V420.1"/>
<path d="M588.7,444.8c0.4,1.4-0.2,2.8-1.4,3.1l0,0c-1.2,0.3-2.4-0.5-2.8-1.9l-10.6-37.6c-0.4-1.4,0.2-2.8,1.4-3.1l0,0
	c1.2-0.3,2.4,0.5,2.8,1.9L588.7,444.8z"/>
<path d="M269.8,434.1c0.6,1,0.2,2.3-0.8,2.9l0,0c-1,0.6-2.4,0.3-3-0.6l-16.1-26.8c-0.6-1-0.2-2.3,0.8-2.9l0,0c1-0.6,2.4-0.3,3,0.6
	L269.8,434.1z"/>
<g>
	<path class="st0" d="M220.7,422.4c0,10.3-2.7,18.7-6,18.7c-3.3,0-6-8.4-6-18.7s2.7-18.7,6-18.7C218,403.7,220.7,412.1,220.7,422.4z
		"/>
	<path d="M214.7,441.7c-4.3,0-6.6-9.9-6.6-19.3c0-9.4,2.3-19.3,6.6-19.3s6.6,9.9,6.6,19.3C221.3,431.8,219,441.7,214.7,441.7z
		 M214.7,404.3c-2.6,0-5.4,7.4-5.4,18.1c0,10.7,2.9,18.1,5.4,18.1s5.4-7.4,5.4-18.1C220.2,411.8,217.3,404.3,214.7,404.3z"/>
</g>
<path class="st5" d="M302.6,452.8"/>
<path class="st5" d="M302.6,390.9"/>
<g>
	<path class="st0" d="M617.2,423.9c4.6,0,8.4-4.5,8.4-10c0-5.5-3.8-10-8.4-10V423.9z"/>
	<path d="M617.2,424.5h-0.6v-21.3h0.6c5,0,9,4.8,9,10.6C626.2,419.7,622.1,424.5,617.2,424.5z M617.8,404.4v18.9
		c4-0.4,7.2-4.5,7.2-9.4C625,408.9,621.8,404.8,617.8,404.4z"/>
</g>
<path class="st2" d="M251,557c-8.9-28.3-26.1-25.7-34.4-21.7c-4.6,1.7-30.3,20.5,5.4,42.6l-6.9,4.6c-7.4-1.6-34.5-33-12.2-55.3
	c9.9-9.9,44.9-23.3,57.2,26.1L251,557z"/>
<path class="st2" d="M280.1,579.4L243,609.5l25.6,28.9l-6.4,5.3L227,603.9c5-5.5,43.2-35.7,43.2-35.7L280.1,579.4z"/>
<g>
	<path class="st1" d="M280.1,563.7L243,593.8l25.6,28.9l-6.4,5.3L227,588.2c5-5.5,43.2-35.7,43.2-35.7L280.1,563.7z"/>
	<path class="st6" d="M262.1,629.6l-36.8-41.5l0.7-0.8c5-5.5,41.8-34.6,43.4-35.9l0.9-0.7l11.5,13L244.7,594l25.6,28.9L262.1,629.6z
		 M228.6,588.2l33.8,38.2l4.6-3.8l-25.6-28.9l37.1-30.2L270,554C264.6,558.4,235.1,581.8,228.6,588.2z"/>
</g>
<g>
	<path class="st1" d="M253.5,542.2c-8.9-28.3-26.1-25.7-34.4-21.7c-4.6,1.7-30.3,20.5,5.4,42.6l-6.9,4.6c-7.4-1.6-34.5-33-12.2-55.3
		c9-9,45.7-20.1,57.2,26.1L253.5,542.2z"/>
	<path class="st6" d="M217.9,569l-0.5-0.1c-5.2-1.1-16.3-12.9-20.2-26.3c-2.5-8.3-3.2-20.4,7.5-31c5.1-5.1,18.9-10.9,32.2-7.2
		c9.1,2.5,21.2,10.5,27,33.9l0.2,1l-11.3,4.5l-0.4-1.2c-3.6-11.5-8.9-18.9-15.8-21.9c-7.2-3.1-14.2-0.5-16.9,0.8
		c-2.5,0.9-11.6,7.2-12.5,16.2c-0.8,8.2,5.2,16.4,18,24.3l1.6,1L217.9,569z M228,505.5c-9.5,0-18,4.1-21.7,7.7
		c-9.8,9.8-9.1,21-6.9,28.7c3.9,13,14.1,23.1,18,24.5l4.9-3.3c-12.6-8.1-18.5-16.7-17.6-25.6c1-10.3,11.2-17.2,14-18.2
		c2.9-1.4,10.7-4.3,18.8-0.8c7.3,3.2,12.9,10.6,16.7,22.1l7-2.8c-4.5-17.1-13.1-27.9-25.1-31.2C233.4,505.8,230.6,505.5,228,505.5z"
		/>
</g>
<path class="st2" d="M422.6,656.9c-2,6.1-5.2,9.2-9.1,10.5c1.5,1.7,11.8,13.6,4.2,25c-10.2,14.3-53.6-5.7-53.6-5.7l18.1-61.2
	C382.2,625.4,429.5,635,422.6,656.9z M383,684.7c0,0,14.1,5,15.6-4.3c-1.1-8.8-11.1-11.1-11.1-11.1L383,684.7z M390.2,657.7
	c0,0,9.1,5.8,13.2-5.1c2.5-11.2-8.2-12.5-8.2-12.5C395.1,640.4,390.2,657.7,390.2,657.7z"/>
<g>
	<path class="st1" d="M416.7,650.3c-2,5.5-5.2,8.3-9.1,9.5c1.5,1.5,11.8,12.3,4.2,22.7c-10.2,13-53.6-5.2-53.6-5.2l18.1-55.4
		C376.3,621.8,423.6,630.5,416.7,650.3z M377.1,675.5c0,0,14.1,4.5,15.6-3.9c-1.1-8-11.1-10.1-11.1-10.1L377.1,675.5z M384.3,651.1
		c0,0,9.1,5.2,13.2-4.6c2.5-10.1-8.2-11.4-8.2-11.4C389.3,635.4,384.3,651.1,384.3,651.1z"/>
	<path class="st6" d="M398.1,688.3c-16.4,0-39.1-9.4-40.4-9.9l-1-0.4l18.8-57.5l1,0.2c1.3,0.2,32.5,6.1,40.3,19.5
		c2,3.4,2.3,6.9,1,10.6l0,0c-1.7,4.8-4.4,7.9-8.1,9.6c3.3,3.8,10,13.4,3.1,22.9C409.8,686.9,404.4,688.3,398.1,688.3z M359.7,676.6
		c3,1.2,12,4.6,21.8,7c15.4,3.7,25.5,3,29.4-1.9c6.9-9.3-2.2-19.2-4.1-21.1l-1.4-1.4l1.9-0.6c3.9-1.1,6.6-4,8.3-8.7
		c1.1-3,0.8-5.8-0.8-8.6c-6.5-11.2-32.2-17-37.6-18.1L359.7,676.6z M384.7,677.9c-4,0-7.7-1.2-8-1.3l-1.1-0.4l5.1-16.1l1,0.2
		c0.4,0.1,10.8,2.4,12.1,11.1l0,0.2l0,0.2c-0.4,2.1-1.4,3.6-3.1,4.7C389,677.6,386.8,677.9,384.7,677.9z M378.6,674.7
		c2.4,0.6,7.8,1.7,10.9-0.2c1.1-0.6,1.7-1.6,2-2.9c-0.9-5.5-6.8-7.9-9.2-8.6L378.6,674.7z M389.7,653.6c-3.2,0-5.8-1.5-5.9-1.5
		l-0.8-0.5l0.3-0.9c0,0,4.9-15.7,5-16l0.3-0.9l1,0.1c0.2,0,5.4,0.7,8.1,4.5c1.5,2.2,1.9,5,1.1,8.3c-1.4,3.4-3.4,5.5-6,6.4
		C391.6,653.5,390.6,653.6,389.7,653.6z M385.8,650.4c1.3,0.5,3.8,1.3,6.1,0.5c1.9-0.7,3.5-2.3,4.5-4.9c0.6-2.4,0.3-4.6-0.8-6.2
		c-1.5-2.1-4.1-3-5.5-3.3C389.2,639.3,386.6,647.6,385.8,650.4z"/>
</g>
<path class="st2" d="M515.8,644.3c0.2,5.9-1,9.3-4.2,11.8c2,0.9,18.1,8.4,13,20.9c-7.7,15.5-50.8,19.4-50.8,19.4l-8.7-64.8
	C465.4,631.5,514.9,620.2,515.8,644.3z M487.8,683.2c0,0,14-0.6,12.3-8.9c-3.4-7.6-13.6-4.9-13.6-4.9L487.8,683.2z M485.4,658.7
	c0,0,12.4,1.5,12.6-9.1c-1.4-10.3-14.2-7.6-14.2-7.6L485.4,658.7z"/>
<g>
	<path class="st1" d="M505.1,640.8c0.2,5.9-1.8,9.6-5,12.2c2,0.9,16.6,7.8,11.5,20.2c-9.1,14.1-49,14.1-49,14.1l-5.4-56.2
		C457.5,631.1,504.1,616.6,505.1,640.8z M478.4,677.8c0,0,14-0.6,12.3-8.9c-3.4-7.6-13.6-4.9-13.6-4.9L478.4,677.8z M476.1,653.4
		c0,0,12.4,1.5,12.6-9.1c-1.4-10.3-14.2-7.6-14.2-7.6L476.1,653.4z"/>
	<path class="st6" d="M461.5,688.5l-5.6-58.3l1-0.2c5.3-1.6,31.9-8.8,43.7-0.3c3.6,2.6,5.5,6.3,5.7,11.1v0c0.1,5.1-1.2,9-4.1,11.9
		c4.5,2.3,15.3,9.4,10.5,21l-0.1,0.2c-9.3,14.4-48.3,14.7-50,14.7L461.5,688.5z M458.5,632l5.2,54.1c6.3-0.1,38.9-1.5,46.9-13.5
		c4.6-11.5-9.3-17.9-11-18.6l-1.8-0.8l1.6-1.2c3.2-2.5,4.7-6.1,4.5-11.2c-0.2-4.1-1.7-7.1-4.7-9.3C488.7,624.1,464,630.4,458.5,632z
		 M477.3,679.1l-1.5-15.9l1-0.3c3.9-1,12-1.2,15,5.5l0.1,0.2c0.4,2.1,0,4-1.2,5.6c-3.4,4.3-11.8,4.7-12.2,4.7L477.3,679.1z
		 M478.4,665l1.1,11.6c2.2-0.2,7.2-1.1,9.3-3.7c0.8-1,1-2.2,0.8-3.6C487.1,664,480.8,664.6,478.4,665z M477.6,654.6
		c-1,0-1.6-0.1-1.7-0.1l-0.9-0.1l-1.8-18.8l1-0.2c0.3-0.1,7.1-1.5,11.7,1.8c2.2,1.5,3.5,3.8,3.9,6.8c0,3.4-1.1,5.9-3.2,7.7
		C483.8,654.2,479.9,654.6,477.6,654.6z M477.1,652.2c1.7,0,5.5-0.1,8-2.3c1.5-1.3,2.3-3.3,2.4-5.8c-0.3-2.2-1.2-3.9-2.9-5
		c-2.8-2-6.9-1.8-8.8-1.6L477.1,652.2z"/>
</g>
<g>
	<path class="st2" d="M550.9,606.3l-9.8,4.8l3.2,65.6l7.9-4.5l-0.6-11.8l27.6-15.9l9.8,6.5l15.7-9.1L550.9,606.3z M551.2,651.9
		l-1.3-26.8l22.9,14.5L551.2,651.9z"/>
</g>
<g>
	<g>
		<g>
			<path class="st1" d="M542.1,606.3l-9.1,4.5l3,61.3l7.4-4.2l-0.5-11.1l25.8-14.9l9.2,6.1l14.7-8.5L542.1,606.3z M542.5,651.6
				l-1.4-27.8l23.1,15.2L542.5,651.6z"/>
		</g>
	</g>
	<g>
		<g>
			<path class="st6" d="M534.8,674.1l-3.1-64l10.4-5.2l52.5,34.7l-17,9.8l-9.2-6.1l-24.5,14.1l0.5,11.1L534.8,674.1z M534.1,611.5
				l2.9,58.6l5.1-2.9l-0.5-11.1l27-15.6l9.2,6.1l12.4-7.2L542,607.6L534.1,611.5z M541.4,653.6l-1.6-32l26.6,17.6L541.4,653.6z
				 M542.4,626.1l1.1,23.5L562,639L542.4,626.1z"/>
		</g>
	</g>
</g>
<path class="st2" d="M611.9,559.3l6-7.5l42.9,34l-4.9,6.2l-50.2,4.4l21.9,25.8l-7.2,6.1l-35.5-41.8l6-5.1l44.9-3.2
	C635.7,578,612.2,559.7,611.9,559.3z"/>
<g>
	<path class="st1" d="M600.3,559.3l6-7.5l42.9,34l-4.9,6.2l-50.2,4.4l21.9,25.8l-7.2,6.1l-35.5-41.8l6-5.1l44.8-3.2
		C624.1,578,600.6,559.7,600.3,559.3z"/>
	<path class="st6" d="M608.6,629.8l-37-43.6l7.2-6.1l42.2-3c-21.2-16.5-21.5-17-21.6-17.2l-0.5-0.7l7.2-9.1l44.7,35.5l-5.9,7.5
		l-0.5,0l-47.9,4.2l21.2,24.9L608.6,629.8z M574.9,586.5l34,40l5.4-4.5l-22.6-26.6l52-4.6l3.8-4.8l-41-32.5l-4.5,5.7
		c3.1,2.6,14.9,11.7,22.9,18l2.4,1.9l-47.5,3.4L574.9,586.5z"/>
</g>
<g>
	<path class="st2" d="M681.5,507.7c-18.7-11.4-33.2-4.2-40.8,7.8l-12.4,19.2l47,30.4l10.8-16.7C693.9,536.2,700.2,519.1,681.5,507.7
		z M680,537.9l-3.7,8l-31.7-20.6l4.6-7.1c6.2-8.9,10.4-8.1,25.8,0.3C686.6,525,680,537.9,680,537.9z"/>
</g>
<g>
	<g>
		<g>
			<path class="st1" d="M669.7,508.7c-18.7-11.4-33.2-4.2-40.8,7.8l-12.4,19.2l47,30.4l10.8-16.7C682,537.2,688.4,520.2,669.7,508.7
				z M671.6,542.4l-4.2,6.6l-34.6-22.5l4.6-7.1c6.2-8.9,11.2-9.5,25.8,0.3C679.3,530.6,671.6,542.4,671.6,542.4z"/>
		</g>
	</g>
	<g>
		<g>
			<path class="st6" d="M663.8,567.8l-49-31.7l13.1-20.2c7.5-11.9,22.6-20.2,42.4-8.1c6.7,4.1,10.8,9.3,12.2,15.4
				c1.7,7.6-0.7,16.6-7.3,26.9L663.8,567.8z M618.1,535.4l45,29.1l10.2-15.7c6.2-9.8,8.6-18.2,7-25.1c-1.3-5.5-5-10.1-11.2-13.9
				c-12-7.4-28.6-9.3-39.2,7.4L618.1,535.4z M667.8,550.6l-36.6-23.8l5.2-8.1c6.9-9.9,12.8-9.9,27.4,0c16.7,11.3,9.1,23.8,8.8,24.3
				L667.8,550.6z M634.4,526.1l32.7,21.2l3.6-5.6c0.3-0.5,6.8-11-8.1-21.1c-14.3-9.7-18.6-8.7-24.2-0.7L634.4,526.1z"/>
		</g>
	</g>
</g>
<g>
	<path class="st2" d="M319,610.2l13.1,9.1L313.7,646c-4.6,6.7-0.6,16.7,3.7,20.1c4.7,3.7,16.4,2.6,19.9-4.8l15.6-32.7l6.7,3.2
		c0,0-13,26.7-14.1,29.6c-6,15.5-20.4,17-32.5,12.7c-11.7-4.2-21.1-25.7-12.7-36.2L319,610.2z"/>
</g>
<g>
	<g>
		<path class="st1" d="M319,595.8l13.1,9.1l-18.4,26.6c-4.6,6.7-0.6,16.7,3.7,20.1c4.7,3.7,16.4,2.6,19.9-4.8l15.6-32.7l6.7,3.2
			c0,0-13,26.7-14.1,29.6c-6,15.5-20.4,17-32.5,12.7c-11.7-4.2-21.1-25.7-12.7-36.2L319,595.8z"/>
		<path class="st6" d="M324.4,663c-4,0-8.1-0.8-11.9-2.2c-6.7-2.4-13-10.2-15.6-19.4c-2.1-7.4-1.2-14.2,2.3-18.7l19.5-28.6l15,10.5
			l-19.1,27.6c-4.3,6.3-0.1,15.7,3.5,18.5c2.2,1.7,6.3,2.3,10.2,1.4c2.2-0.5,6.1-1.9,7.9-5.7l16.1-33.7l8.8,4.2l-0.5,1.1
			c-0.1,0.3-13,26.7-14.1,29.5C342,658.9,333.3,663,324.4,663z M319.3,597.5l-18.2,26.7c-3.1,4-3.8,10-2,16.6
			c2.4,8.3,8.2,15.6,14.1,17.8c11.2,4,25.2,3,31-12c1-2.6,11.2-23.6,13.6-28.6l-4.5-2.2l-15.1,31.6c-1.6,3.5-5,6-9.5,7
			c-4.6,1.1-9.4,0.4-12.2-1.8c-4.9-3.8-8.9-14.4-4-21.7l17.8-25.7L319.3,597.5z"/>
	</g>
</g>
<path d="M486.9,274.9c-6.7-4.2-12.1-13.1-10.5-22.7c-7.3,6.7-12.9,8.3-20.9,6.2l0.4-1.7c8.1,2.1,13.5,0.1,21.4-7.8l1.5,0.9
	c-3.1,9.9,2.2,19.4,9,23.7L486.9,274.9z"/>
<path d="M475.1,283.2c-4.7-2.9-6.7-6.8-6.6-13.3c-6.5,3.8-10.9,3.6-17.2,1.7l0.5-1.7c6.4,1.9,10.3,2,17.2-2.4l1.5-1l-0.1,1.8
	c-0.6,7.9,1.9,11.1,5.6,13.4L475.1,283.2z"/>
<g>
	<path class="st1" d="M443.3,330.7c6.8-40.5,24.3-52.7,36.1-47.1c28.5-36.7,60.8-46.6,77-27.9c15.4,17.8-12,50.8-23.2,50.8
		c5.3-38.8-41.4,11.5-52.3,28.2c0-4.7-7.8-6.6-16.1,3.8"/>
	<path d="M465.5,339.2l-1.6-1.3c6-7.4,11.5-8.8,14.8-7.6c1.1,0.4,2,1.1,2.6,2c9.5-13.6,37.8-44.9,49-40.8c3.7,1.4,5,5.9,4.1,13.8
		c6.1-1.2,16.7-11.2,22.3-23.3c2.7-6,6.2-17.3-1-25.6c-5.2-6-12.4-9.1-20.7-8.9c-17,0.5-36.9,13.8-54.7,36.7l-0.5,0.7l-0.8-0.4
		c-3.7-1.7-7.8-1.6-11.9,0.6c-10.5,5.4-18.7,22.1-22.7,45.8l-2.1-0.3c4.1-24.3,12.8-41.5,23.8-47.3c4.4-2.3,8.9-2.6,12.9-0.9
		c18-23,38.3-36.4,55.7-36.9c8.9-0.3,16.7,3.1,22.3,9.6c5.9,6.8,6.4,16.7,1.3,27.9c-5.8,12.7-18.1,24.7-25.3,24.7H532l0.2-1.2
		c0.7-5.2,0.8-11.6-2.6-12.9c-9.4-3.5-38.7,27.9-47.8,41.8l-1.9,2.9v-3.5c0-1.2-0.7-2.1-1.8-2.5
		C475.6,331.4,470.8,332.7,465.5,339.2z"/>
</g>
<path class="st4" d="M489.2,308c6.8-8.7,46.7-43.7,52.5-27.7c8.7-14.8-0.7-18.1-6.6-18.1c-16.1,0.9-36.4,20.5-49.6,37.1L489.2,308z"
	/>
<path class="st4" d="M456.8,330.3c-1.1-6,8.2-26.8,15.5-26c3.6,0.6,5.1,5.7,1.9,11.4C465.3,309.7,461.3,331.2,456.8,330.3z"/>
<g>
	<path class="st1" d="M443.3,330.7c0,0,1.4-46.7-20.9-95.5c10.5,4.3,20.9,6.5,20.9-17"/>
	<path d="M444.4,330.8l-2.1-0.1c0-0.5,1.1-47.1-20.8-95.1l-1.1-2.4l2.4,1c5.4,2.2,10.8,3.9,14.4,1.5c3.4-2.3,5.1-8.1,5.1-17.5h2.1
		c0,10.2-2,16.5-6,19.2c-3.8,2.6-8.9,1.6-14-0.3C445.5,284.7,444.4,330.3,444.4,330.8z"/>
</g>
<g>
	<path class="st1" d="M443.3,330.7c0,0-1.4-46.7,20.9-95.5c-10.5,4.3-20.9,6.5-20.9-17"/>
	<path d="M442.3,330.8c0-0.5-1.1-46,20-93.7c-5.1,1.9-10.2,2.9-14,0.3c-4-2.7-6-9-6-19.2h2.1c0,9.3,1.7,15.2,5.1,17.5
		c3.6,2.4,9.1,0.7,14.4-1.5l2.4-1l-1.1,2.4c-22,48-20.9,94.6-20.8,95.1L442.3,330.8z"/>
</g>
<path class="st4" d="M443.3,282.3c-1.6-12.2-4.8-26.2-8.5-33.3c4.2,1.6,6.1,0.9,8.5-2.6 M443.3,282.3c1.6-12.2,4.8-26.2,8.5-33.3
	c-4.2,1.6-6.1,0.9-8.5-2.6"/>
<path class="st2" d="M412.6,351.3c5-12.1,16.8-20.6,30.7-20.6l0,10.9c-11.2,0-20.4,8.2-22.1,19 M412.6,351.3H355
	c-13.7,0-17,7.3-17.5,14h11.3c0.3-2.6,1.5-4.8,4-4.8h68.4"/>
<path class="st2" d="M465.4,360.6c-1.6-10.7-10.9-19-22.1-19l0-10.9c13.9,0,25.8,8.5,30.7,20.6 M465.4,360.6h68.4
	c2.5,0,3.7,2.2,4,4.8h11.3c-0.4-6.7-3.8-14-17.5-14H474"/>
<path d="M477.3,597.6c-7.9-7.9-13.3-9.9-21.4-7.8l-0.4-1.7c8-2,13.6-0.5,20.9,6.2c-1.6-9.6,3.8-18.5,10.5-22.7l0.9,1.5
	c-6.8,4.3-12.2,13.8-9,23.7L477.3,597.6z"/>
<g>
	<path class="st1" d="M725.3,405.9V396c0,0-6.5-5.1-13-5.1c-7.9,0-21.3,5.5-20.2,21.7c1,14.8,16.2,18.1,18,24.6
		c1.9,6.8-4.4,9.6-16.7,4v8c0,0,20,9.8,30.1-2.9c8.2-10.3,3.1-19.9-1.4-24.4c-4-4-13.5-8.6-13.5-13
		C708.7,404.3,714.2,400.2,725.3,405.9z"/>
	<path d="M708.8,453.3c-8.1,0-15.6-3.6-15.7-3.6l-0.3-0.2v-9.3l0.8,0.4c6.9,3.2,12.5,3.9,14.9,1.8c1.6-1.3,1.4-3.5,1-5.1
		c-0.6-2.3-3.2-4.2-6.1-6.5c-5-3.9-11.3-8.8-11.9-18.2c-0.4-6.3,1.2-11.6,5-15.6c4.6-5,11.4-6.7,15.8-6.7c6.6,0,13.1,5,13.4,5.2
		l0.2,0.2v11.2l-0.9-0.4c-5.6-2.9-10.5-3.5-13.4-1.7c-1.5,0.9-2.4,2.4-2.4,4.2c0,2.6,4.2,5.6,7.9,8.3c2.1,1.5,4,2.9,5.4,4.3
		c5.5,5.5,9.2,15.4,1.4,25.1C719.9,451.8,714.2,453.3,708.8,453.3z M694,448.8c2.6,1.2,20.1,8.4,29.1-2.9c7.3-9.1,3.8-18.4-1.3-23.6
		c-1.3-1.3-3.2-2.7-5.2-4.1c-4.1-3-8.4-6-8.4-9.3c0-2.2,1.1-4.1,2.9-5.2c1.9-1.1,6.1-2.4,13.7,1.2v-8.7c-1.2-0.9-6.9-4.8-12.4-4.8
		c-4.2,0-10.6,1.7-15,6.3c-3.5,3.8-5.1,8.7-4.7,14.7c0.6,8.9,6.6,13.6,11.5,17.4c3.1,2.4,5.8,4.5,6.5,7.1c0.7,2.7,0.3,4.9-1.3,6.3
		c-2.7,2.3-8.3,1.8-15.4-1.3V448.8z"/>
</g>
<path d="M712.6,397.1c-10.9,7.3-15.5,14.7-2.2,25c7,6.6,16.6,11,7.5,24c-1.6,2-6.2,2.3-5.1-0.5c11.7-6.5-1-17.3-8-23.9
	c-11.1-11.1-4.7-18.9,6.2-26.2C712.1,394.7,714,395.9,712.6,397.1z"/>
<path d="M630,399.7c4.9,1.6,9.5,20,0.9,24.6c-0.9,0.5-2.1,0.5-1.5-0.8c2.8-5.4,6.2-11.6-1.3-22.9C627.5,399.4,628.4,399.1,630,399.7
	z"/>
<path d="M223.1,398.4c4.1,0.3,10.3,27.7,2.6,40.3c-1.6,3-3.3,2.9-2.2,0c5.5-16,3.7-31.2-0.7-37.4
	C221.9,400.1,221.8,398.3,223.1,398.4z"/>
<path d="M205.4,399.6c-7.8,7.8-9.6,39.7,3.8,46.3c0.9,0.3,1.7-0.4,1.8-1.3c-5.5-6.6-13.5-23.5-2.5-41.7
	C208,400.4,207.2,399.6,205.4,399.6z"/>
<polygon class="st2" points="362.9,217.7 339.4,162.6 390.6,143.9 393,149.8 358.6,162.6 365.7,179.3 399.6,166.7 402.5,174.2 
	368.8,186.7 376.3,204 409.4,191.7 412.5,199.5 "/>
<g>
	<polygon class="st1" points="353.9,226.6 330.9,173.3 381.4,154.6 383.1,160.9 349.6,173.4 357.5,191.8 388.4,180.4 390.2,186.9 
		360.3,198.2 368,216 395.4,206 396.7,210.8 	"/>
	<path class="st6" d="M353.2,228.1l-23.9-55.4l52.8-19.7l2.4,8.6L351.2,174l7,16.3l31-11.5l2.4,8.8l-29.7,11.2l6.8,15.7l27.5-10.1
		l1.9,7.1L353.2,228.1z M332.5,174l22,51.1l40.8-15l-0.7-2.6l-27.2,10l-8.7-20l30.1-11.4l-1.2-4.2l-30.7,11.4l-8.9-20.6l33.7-12.5
		l-1.1-4.1L332.5,174z"/>
</g>
<polygon class="st2" points="550.3,235 578.3,179.7 623.4,205.7 618.4,213 587.5,195.2 580,209.4 609.4,225.9 604.8,232.6 
	576.4,216.5 566.6,235.7 592.3,250.6 588,256.8 "/>
<g>
	<polygon class="st1" points="534.5,232 560.6,180.1 607.4,206.7 603.7,212.1 572.6,194.4 564.9,209.7 593.8,226.3 590.4,231.3 
		562.2,215 551.7,236 577.1,250.5 574.2,254.6 	"/>
	<path class="st6" d="M574.5,256.2L533,232.4l27.1-54l49,27.8l-5.1,7.3l-31-17.6l-6.6,13.2l29.1,16.7l-4.8,6.9l-28-16.1l-9.4,18.9
		l25.5,14.5L574.5,256.2z M536.1,231.5l37.7,21.6l1.5-2.2l-25.2-14.4l11.5-23.1l28.3,16.3l2.1-3l-28.8-16.5l8.7-17.4l31.2,17.7
		l2.4-3.5l-44.6-25.3L536.1,231.5z"/>
</g>
<path class="st2" d="M266.3,270.3c0,2.4-1.9,4.4-4.4,4.4c-2.4,0-4.4-1.9-4.4-4.4c0-2.4,1.9-4.4,4.4-4.4
	C264.4,266,266.3,267.9,266.3,270.3z"/>
<path class="st2" d="M274.2,278.1c0,2.4-2,4.4-4.4,4.4c-2.4,0-4.4-1.9-4.4-4.4c0-2.4,1.9-4.4,4.4-4.4
	C272.3,273.8,274.2,275.7,274.2,278.1z"/>
<g>
	<path class="st1" d="M264.1,275.5c0,2-1.6,3.7-3.7,3.7c-2,0-3.7-1.6-3.7-3.7c0-2,1.6-3.7,3.7-3.7
		C262.5,271.8,264.1,273.4,264.1,275.5z"/>
	<path class="st6" d="M260.4,280.3c-2.7,0-4.9-2.2-4.9-4.9s2.2-4.9,4.9-4.9s4.9,2.2,4.9,4.9S263.1,280.3,260.4,280.3z M260.4,272.9
		c-1.4,0-2.5,1.1-2.5,2.5c0,1.4,1.1,2.5,2.5,2.5s2.5-1.1,2.5-2.5C262.9,274.1,261.8,272.9,260.4,272.9z"/>
</g>
<g>
	<path class="st1" d="M271.4,282.1c0,2-1.6,3.7-3.7,3.7c-2,0-3.7-1.6-3.7-3.7c0-2,1.6-3.7,3.7-3.7
		C269.8,278.5,271.4,280.1,271.4,282.1z"/>
	<path class="st6" d="M267.7,287c-2.7,0-4.9-2.2-4.9-4.9s2.2-4.9,4.9-4.9s4.9,2.2,4.9,4.9S270.4,287,267.7,287z M267.7,279.6
		c-1.4,0-2.5,1.1-2.5,2.5c0,1.4,1.1,2.5,2.5,2.5s2.5-1.1,2.5-2.5C270.2,280.8,269.1,279.6,267.7,279.6z"/>
</g>
<g>
	<path class="st2" d="M318.5,181.5c-14.1-14.1-31.4,4.1-39.1,9.9l-12.4,10.5l36.4,42.6l12.3-10.5l-10.1-11.9
		C317.7,211.7,332.5,195.4,318.5,181.5z M299.8,215.3L285,198c0,0,14.1-15,22-5.6C314.2,200.9,306.5,209.4,299.8,215.3z"/>
</g>
<g>
	<g>
		<g>
			<path class="st1" d="M315.7,193.8c-14.1-14.1-31.4,4.1-39.1,9.9l-12.4,10.5l36.4,42.6l12.3-10.5l-10.1-11.9
				C314.9,224,329.7,207.8,315.7,193.8z M297,227.6l-14.8-17.3c0,0,14.1-15,22-5.6C311.4,213.2,303.8,221.7,297,227.6z"/>
		</g>
	</g>
	<g>
		<g>
			<path class="st6" d="M300.5,258.5l-37.9-44.4l13.3-11.3c1.1-0.8,2.3-1.8,3.6-2.9c9-7.4,24.1-19.9,37.1-6.9
				c4.1,4.1,6.2,8.8,6,13.9c-0.3,8.2-6.2,17.3-18.1,27.7l10.1,11.9L300.5,258.5z M265.9,214.3l34.8,40.8l10.5-9l-10.1-11.9l0.9-0.8
				c11.9-10.3,17.9-19,18.1-26.7c0.2-4.4-1.6-8.5-5.3-12.1l0,0c-11.5-11.5-25-0.3-33.9,7.1c-1.4,1.1-2.6,2.1-3.6,2.9L265.9,214.3z
				 M296.8,229.3l-16.2-19l0.7-0.8c0.4-0.4,8.8-9.2,16.7-9.1c2.8,0.1,5.2,1.3,7.1,3.5c8.8,10.5-3.4,21.1-7.4,24.5L296.8,229.3z
				 M283.8,210.3l13.3,15.6c9.1-8.2,11.1-14.7,6.3-20.5c-1.5-1.8-3.2-2.6-5.4-2.7C292.3,202.6,286,208.3,283.8,210.3z"/>
		</g>
	</g>
</g>
<g>
	<path class="st2" d="M475.6,153.5c-4.3-21.2-30.8-15.1-41.2-14.5l-17.5,2.1l7.4,60.2l17.4-2.1l-2.1-16.8
		C456.7,180.3,479.8,174.5,475.6,153.5z M438.4,172.8l-3-24.5c0,0,21.7-5.2,23.2,8.1C460,168.5,448,171.6,438.4,172.8z"/>
</g>
<g>
	<g>
		<g>
			<path class="st1" d="M461.3,164.9c-4-19.6-28.4-13.9-38.1-13.3l-16.1,1.9l6.8,55.6l16.1-2l-1.9-15.5
				C443.9,189.6,465.2,184.2,461.3,164.9z M427,182.7l-2.7-22.6c0,0,20-4.8,21.5,7.5C446.9,178.7,435.9,181.6,427,182.7z"/>
		</g>
	</g>
	<g>
		<g>
			<path class="st6" d="M412.9,210.4l-7.1-58l17.3-2.1c1.4-0.1,2.9-0.2,4.6-0.4c11.6-1.2,31.1-3.3,34.7,14.7l0,0
				c1.2,5.8,0.3,10.8-2.7,14.9c-4.8,6.7-14.7,11-30.3,13.1l1.9,15.5L412.9,210.4z M408.4,154.5l6.5,53.3l13.7-1.7l-1.9-15.5l1.2-0.1
				c15.6-2,25.4-6,29.9-12.3c2.6-3.6,3.3-8,2.3-13c-3.2-15.9-20.7-14.1-32.2-12.8c-1.8,0.2-3.3,0.4-4.7,0.4L408.4,154.5z
				 M425.9,184.1l-3-24.8l1-0.2c0.5-0.1,12.4-2.9,18.9,1.6c2.3,1.6,3.6,3.9,4,6.9c1.6,13.6-14.5,15.7-19.7,16.4L425.9,184.1z
				 M425.5,161.1l2.5,20.3c12.1-1.8,17.4-6.1,16.5-13.6c-0.3-2.3-1.2-4-3-5.2C436.9,159.3,428.4,160.5,425.5,161.1z"/>
		</g>
	</g>
</g>
<g>
	<path class="st2" d="M514.9,148.4l-16.8-3.8l-13.5,57.9l16.7,3.8l3.7-16.1c16.5,3.6,39.7,5.8,42.8-14.8
		C551.1,154.4,524.7,151.3,514.9,148.4z M531.4,172.5c-2.8,11.5-14.9,10.4-24.1,8.4l5.5-23.5C512.7,157.3,534.4,159.7,531.4,172.5z"
		/>
</g>
<g>
	<g>
		<g>
			<path class="st1" d="M504.3,158.9l-15.8-3.7L476,209.8l15.8,3.6l3.5-15.2c15.5,3.5,37.4,5.6,40.3-13.9
				C538.5,164.6,513.6,161.7,504.3,158.9z M520,181.6c-2.6,10.8-14,9.8-22.7,7.8l5.1-22.2C502.3,167.3,522.8,169.6,520,181.6z"/>
		</g>
	</g>
	<g>
		<g>
			<path class="st6" d="M492.7,214.8l-18.1-4.1l13-56.9l17,4c1.2,0.4,2.7,0.7,4.4,1.1c11.4,2.8,30.4,7.5,27.7,25.6
				c-0.9,5.8-3.4,10.2-7.6,13.1c-6.8,4.6-17.6,5.3-33,2L492.7,214.8z M477.4,208.9l13.5,3.1l3.5-15.2l1.1,0.3
				c15.4,3.4,25.9,3,32.3-1.4c3.6-2.5,5.8-6.4,6.6-11.5c2.4-16.1-14.6-20.2-25.9-23c-1.7-0.4-3.2-0.8-4.5-1.2l-14.6-3.4L477.4,208.9
				z M506.7,191.9c-3.9,0-7.7-0.8-9.7-1.3l-1.2-0.3l5.6-24.4l1,0.1c0.5,0.1,12.7,1.5,17.2,8c1.6,2.3,2.1,4.9,1.4,7.8v0
				C519.2,190,512.7,191.9,506.7,191.9z M498.7,188.5c12,2.5,18.4,0.2,20.2-7.2l0,0c0.5-2.2,0.2-4.2-1-5.9
				c-3.2-4.6-11.6-6.4-14.5-6.8L498.7,188.5z"/>
		</g>
	</g>
</g>
<polygon class="st2" points="256.4,247.1 239,230.1 236.3,233 233.2,229.9 242,220.9 245,223.9 242.3,226.7 259.7,243.7 "/>
<g>
	<path class="st2" d="M248.6,253.5c-0.3,1.1-0.8,2.1-1.4,3.2c-0.7,1.1-1.4,2.1-2.4,3.1c-2.5,2.7-5.4,3.9-8.7,3.7
		c-3.3-0.2-6.5-1.7-9.6-4.7c-3.1-2.9-4.8-6.1-5.3-9.6c-0.5-3.5,0.5-6.5,2.8-8.9c0.4-0.4,0.8-0.8,1.2-1.1c0,0,5.4,5.1,5.4,5.1
		c-0.6,0.3-1,0.7-1.4,1.1c-1.2,1.2-1.6,2.7-1.4,4.4c0.2,1.7,1.1,3.3,2.6,4.7c1.4,1.3,2.9,2.1,4.5,2.2c1.6,0.1,2.9-0.4,4-1.6
		c0.3-0.3,0.5-0.6,0.7-0.9c0.2-0.3,0.3-0.7,0.5-1l-3-2.9l4-4.2L248.6,253.5z"/>
</g>
<g>
	<polygon class="st1" points="254.1,262.1 236.7,245.2 234,248 230.9,245 239.7,236 242.7,239 240,241.8 257.4,258.8 	"/>
	<path class="st6" d="M254.1,263.8l-17.4-16.9l-2.7,2.9l-4.8-4.7l10.4-10.7l4.8,4.6l-2.7,2.8l17.5,17L254.1,263.8z M236.6,243.5
		l17.4,17l1.7-1.7l-17.4-17l2.7-2.8l-1.4-1.3l-7.1,7.3l1.4,1.4L236.6,243.5z"/>
</g>
<g>
	<g>
		<path class="st1" d="M246.3,268.6c-0.3,1.1-0.8,2.1-1.4,3.2c-0.7,1.1-1.4,2.1-2.4,3.1c-2.5,2.7-5.4,3.9-8.7,3.7
			c-3.3-0.2-6.5-1.7-9.6-4.7c-3.1-2.9-4.8-6.1-5.3-9.6c-0.5-3.5,0.5-6.5,2.8-8.9c0.4-0.4,0.8-0.8,1.2-1.1c0,0,5.4,5.1,5.4,5.1
			c-0.6,0.3-1,0.7-1.4,1.1c-1.2,1.2-1.6,2.7-1.4,4.4c0.2,1.7,1.1,3.3,2.6,4.7c1.4,1.3,2.9,2.1,4.5,2.2c1.6,0.1,2.9-0.4,4-1.6
			c0.3-0.3,0.5-0.6,0.7-0.9c0.2-0.3,0.3-0.7,0.5-1l-3-2.9l4-4.2L246.3,268.6z"/>
		<path class="st6" d="M234.5,279.9c-0.2,0-0.5,0-0.7,0c-3.5-0.2-7-1.9-10.4-5c-3.3-3.1-5.2-6.5-5.7-10.3c-0.5-3.9,0.5-7.2,3.1-9.9
			c0.4-0.5,0.9-0.9,1.4-1.2l0.8-0.6l0.7,0.7c0.1,0.1,5.4,5.1,5.4,5.1l1.2,1.1l-1.4,0.8c-0.4,0.3-0.8,0.6-1.2,0.9
			c-0.9,1-1.3,2.1-1.1,3.4c0.2,1.5,1,2.8,2.3,4c1.2,1.2,2.4,1.8,3.7,1.9c1.2,0.1,2.2-0.3,3-1.2c0.2-0.2,0.4-0.5,0.5-0.7
			c0,0,0.1-0.1,0.1-0.1l-3.2-3.1l5.6-5.9l8.9,8.5l-0.2,0.7c-0.3,1.1-0.8,2.3-1.5,3.5c-0.7,1.2-1.5,2.3-2.5,3.3
			C240.8,278.5,237.8,279.9,234.5,279.9z M222.9,255.9c-0.1,0.1-0.2,0.2-0.3,0.4c-2.1,2.2-2.9,4.8-2.4,8c0.4,3.2,2.1,6.2,4.9,8.9
			c2.9,2.7,5.9,4.2,8.9,4.4c2.9,0.2,5.5-0.9,7.8-3.4c0.9-0.9,1.6-1.9,2.2-2.9c0.5-0.8,0.8-1.5,1.1-2.3l-6.2-5.9l-2.3,2.5l2.7,2.6
			l-0.2,0.7c-0.1,0.4-0.3,0.9-0.6,1.3c-0.2,0.4-0.5,0.8-0.8,1.1c-1.3,1.4-3,2.1-4.9,1.9c-1.8-0.1-3.6-1-5.2-2.5
			c-1.7-1.6-2.7-3.4-3-5.4c-0.3-2.1,0.3-3.9,1.7-5.4c0.1-0.2,0.3-0.3,0.5-0.4C225.5,258.4,223.8,256.8,222.9,255.9z"/>
	</g>
</g>
<path class="st2" d="M219.9,334l13.3,7.9c0,0,35.4-44.5,10.1-57.9c-24.8-8.7-25.6,18.9-39.7,18.9c-14.5-4.3,14.4-34.8,14.4-34.8
	l-7.1-4c0,0-39,39.5-17.6,63.7c23,15.4,36.6-31.7,45.5-22.8C236.6,314,222.1,331.7,219.9,334z"/>
<g>
	<path class="st1" d="M225.3,349.1l7.1,3.8c0,0,35.1-42,10.7-54.9c-21.1-9.6-22.8,29.1-42,24.4c-14-4.1,17.6-39.8,17.6-39.8
		l-6.9-3.8c0,0-39.2,44.7-17,61.5c22.2,14.8,35.3-30.6,43.9-21.9C250.3,329.9,227.5,346.9,225.3,349.1z"/>
	<path class="st6" d="M232.8,354.4l-9.4-5l1.1-1.1c0.2-0.2,0.7-0.7,1.4-1.2c4-3.4,14.6-12.6,14.9-20.9c0.1-2.6-0.8-4.9-2.9-6.9
		c-0.7-0.7-1.3-0.8-1.7-0.8c-2.4,0.1-5.8,4.5-9.5,9.1c-7.8,9.8-18.4,23.2-32.6,13.8c-4.2-3.2-6.6-7.5-7.2-12.9
		c-2.1-20.3,22.9-49.1,24-50.3l0.6-0.7l9,5l-1,1.1c-6.5,7.3-22.8,28-20.7,35.5c0.3,1.2,1.2,1.9,2.5,2.4c8.2,2,13-4.9,18.1-12.3
		c5.6-8.2,12-17.5,24.1-12c5,2.6,8,6.5,9,11.6c3.5,17.7-18.3,44-19.2,45.1L232.8,354.4z M227.4,348.9l4.8,2.6
		c3.5-4.4,21.1-27.4,18.1-42.4c-0.9-4.4-3.4-7.7-7.7-9.9c-10.2-4.6-15.5,3.1-21.1,11.3c-5.3,7.7-10.8,15.7-20.6,13.3
		c-2.2-0.7-3.6-2-4.2-4c-2.7-9.3,15.3-31,20.2-36.6l-4.7-2.7c-3.9,4.6-24.6,30.2-22.8,47.8c0.5,4.7,2.6,8.5,6.2,11.2
		c12.3,8.2,21.8-3.7,29.4-13.3c4.3-5.4,7.7-9.8,11.2-10c1.3-0.1,2.4,0.4,3.5,1.4c2.5,2.5,3.7,5.4,3.6,8.7
		C242.8,335.6,231.7,345.2,227.4,348.9C227.4,348.8,227.4,348.8,227.4,348.9z"/>
</g>
<path class="st2" d="M647,312.1l-14,2.7c-2.2,2.2,8,51.4,32.6,44.6c16.2-5.2,2.9-29.1,17.4-40.1c8.9-4,8.5,34.1,8.5,34.1l6.7,1.9
	c5-15.2,2.9-62.2-24.4-57.1c-25.9,6.5-5.4,45.9-17.6,46.5C648.2,336.7,647,312.1,647,312.1z"/>
<g>
	<path class="st1" d="M632.6,310.9l-7,1.3c0,0-1.2,44.1,28.6,40.5c21.3-9.2-2.8-30.8,13.6-41.8c12.5-7.6,16.3,30.5,16.3,30.5l7.5-2
		c0,0-4.2-49.1-31.5-44c-25.9,6.5-3.1,41.9-15.3,42.5C629.4,335.8,634.1,314,632.6,310.9z"/>
	<path class="st6" d="M650.8,354.1c-5.7,0-10.7-1.8-14.7-5.5c-12.3-11.2-11.8-35.4-11.8-36.4l0-1l8.8-1.6l0.4,0.8
		c0.5,0.9,0.5,2.5,0.5,5.5c0,7.2,0.1,19.4,10.6,20.9c1.1-0.1,1.5-0.5,1.8-0.8c1.4-1.7,0.8-6.4,0.2-11.4c-1.5-11-3.4-26.1,13-30.2
		c5.9-1.1,11.3,0.1,15.9,3.6c14.4,10.9,17,40.2,17.1,41.4l0.1,1L683,343l-0.1-1.4c-0.7-7.3-4-26.9-10.3-30c-1.3-0.6-2.7-0.5-4.2,0.4
		c-7,4.7-5.9,11.7-4.6,19c1.4,8.3,3,17.6-9.1,22.8l-0.3,0.1C653.1,354,651.9,354.1,650.8,354.1z M626.7,313.2
		c0,4.6,0.8,24.4,11,33.7c4.2,3.9,9.6,5.4,16.1,4.7c10.2-4.5,9-11.8,7.6-20.2c-1.3-7.4-2.7-15.8,5.7-21.4c2.3-1.4,4.5-1.6,6.5-0.5
		c7.8,3.9,10.7,24.5,11.4,30.5l5.2-1.4c-0.6-5.2-4-29.6-16.1-38.8c-4-3.1-8.7-4.1-13.9-3.2c-14.4,3.6-12.6,16.9-11.2,27.6
		c0.8,6,1.4,10.7-0.7,13.2c-0.8,1-2.1,1.6-3.6,1.6l-0.1,0l-0.1,0c-12.6-1.8-12.7-15.8-12.7-23.3c0-1.3,0-2.7-0.1-3.6L626.7,313.2z"
		/>
</g>
<g>
	<path class="st2" d="M650.3,236.1l-11.7-12l-43.1,44l12.8,14.1l15.1-16.1l7.2,7.3l-10.8,19.3l6.5,6.2l10.6-14.4
		c0,0,16.1,2.3,23.7-5.5C676.7,258.2,650.3,236.1,650.3,236.1z M651.3,265.4c-9.8,10-22.6-7.4-22.6-7.4l16-16.3
		C644.7,241.8,661.1,255.4,651.3,265.4z"/>
</g>
<g>
	<g>
		<g>
			<path class="st1" d="M636.1,238.2l-11.3-11.3l-39.5,39.5l11.3,11.3l12.2-12.2l9,9l-10.3,18.4l6.5,9.8l12.8-22.9
				c0,0,11.7,6.4,19.1-0.9C660.9,261.9,636.1,238.2,636.1,238.2z M637.1,266.1c-9.5,9.5-21.9-7-21.9-7l15.5-15.5
				C630.7,243.6,646.7,256.5,637.1,266.1z"/>
		</g>
	</g>
	<g>
		<g>
			<path class="st6" d="M614.1,305l-7.9-12.1l10.2-18.3l-7.5-7.5l-12.2,12.2l-13-13l41.1-41.1l12.2,12.2c0.7,0.6,25.3,24.8,9.8,42.2
				c-6.7,6.7-16.3,3.2-19.5,1.7L614.1,305z M608.9,292.8l5,7.6l12.5-22.3l1,0.6c0.1,0.1,11,5.9,17.7-0.7
				c14.1-15.8-9.5-38.7-9.8-38.9l0,0l-10.5-10.5L587,266.3l9.7,9.7l12.2-12.2l10.4,10.4L608.9,292.8z M630.5,270.2
				c-0.3,0-0.5,0-0.8,0c-8-0.6-15.1-10-15.4-10.4l-0.6-0.8l16.9-16.9l0.8,0.7c0.4,0.3,9.4,7.8,9.9,15.9c0.2,3.1-1,5.9-3.4,8.3
				C635.8,269.1,633.3,270.2,630.5,270.2z M616.9,259.2c1.8,2.2,7.4,8.3,13.1,8.7c2.4,0.2,4.5-0.7,6.4-2.6c1.9-1.9,2.8-4.1,2.7-6.5
				c-0.3-5.8-6-11.5-8.2-13.5L616.9,259.2z"/>
		</g>
	</g>
</g>
</svg>
